<svg width="38" height="38" viewBox="0 0 38 38" fill="none" xmlns="http://www.w3.org/2000/svg">
<path d="M0.999878 19.0001C0.999879 9.0589 9.05878 0.999999 18.9999 1C28.9411 1 37 9.0589 37 19.0001C37 28.9412 28.9411 37.0001 18.9999 37.0001C9.05877 37.0001 0.999877 28.9412 0.999878 19.0001Z" fill="#E3B873"/>
<path fill-rule="evenodd" clip-rule="evenodd" d="M20.5657 24.4783L15.0869 19L20.5657 13.5217L21.3478 14.3038L16.6511 19L21.3478 23.6963L20.5657 24.4783Z" fill="white"/>
<path d="M0.999878 19.0001C0.999879 9.0589 9.05878 0.999999 18.9999 1C28.9411 1 37 9.0589 37 19.0001C37 28.9412 28.9411 37.0001 18.9999 37.0001C9.05877 37.0001 0.999877 28.9412 0.999878 19.0001Z" stroke="white" stroke-width="0.75"/>
<path fill-rule="evenodd" clip-rule="evenodd" d="M20.5657 24.4783L15.0869 19L20.5657 13.5217L21.3478 14.3038L16.6511 19L21.3478 23.6963L20.5657 24.4783Z" stroke="white" stroke-width="0.75"/>
</svg>
