<svg width="38" height="38" viewBox="0 0 38 38" fill="none" xmlns="http://www.w3.org/2000/svg">
<path d="M37.0001 19.0001C37.0001 28.9412 28.9412 37.0001 19.0001 37.0001C9.0589 37.0001 1 28.9412 1 19.0001C1 9.0589 9.0589 1 19.0001 1C28.9412 1 37.0001 9.0589 37.0001 19.0001Z" fill="#E3B873"/>
<path fill-rule="evenodd" clip-rule="evenodd" d="M17.4343 13.5218L22.9131 19.0001L17.4343 24.4784L16.6522 23.6964L21.3489 19.0001L16.6522 14.3038L17.4343 13.5218Z" fill="white"/>
<path d="M37.0001 19.0001C37.0001 28.9412 28.9412 37.0001 19.0001 37.0001C9.0589 37.0001 1 28.9412 1 19.0001C1 9.0589 9.0589 1 19.0001 1C28.9412 1 37.0001 9.0589 37.0001 19.0001Z" stroke="white" stroke-width="0.75"/>
<path fill-rule="evenodd" clip-rule="evenodd" d="M17.4343 13.5218L22.9131 19.0001L17.4343 24.4784L16.6522 23.6964L21.3489 19.0001L16.6522 14.3038L17.4343 13.5218Z" stroke="white" stroke-width="0.75"/>
</svg>
